<svg baseProfile="tiny" xmlns="http://www.w3.org/2000/svg" width="162" height="42.677" viewBox="0 0 162 42.677"><g fill="#FFF"><path fill-rule="evenodd" d="M46.992 30.133l1.11-.334V11.116c0-4.52 0-4.706 1.444-4.854l1.334-.112v-.797h-9v.797l1.333.113c1.445.148 1.445.334 1.445 4.854v15.048c-.555.666-2.85 2.965-6.705 2.965-5.74 0-6.628-3.52-6.628-8.82v-9.193c0-4.52 0-4.708 1.446-4.854l1.333-.112v-.795h-9v.797l1.334.113c1.444.146 1.444.333 1.444 4.854v9.785c0 5.04.63 9.45 8.298 9.45 4.927 0 8-2.334 8.518-2.334.555 0 .852.518 1.37 1.036l.927 1.078zm9.92-.333h10.26V29l-1.334-.11c-2.074-.148-2.074-.333-2.074-4.854V6.394h1.926c5.22 0 5.296.553 6.11 4.853h.888c0-.15-.184-5.077-.333-5.892h-20.63c-.145.815-.333 5.743-.333 5.892h.89c.814-4.3.89-4.853 6.11-4.853h1.928v17.64c0 4.522 0 4.707-2.037 4.855l-1.37.11v.8zm38.574-4.875c0-3.606 0-3.792.703-3.94l1.333-.113v-.795h-9.406v.795l1.334.113c2.59.148 2.59.334 2.59 4.868v2.797c-1.295.333-2.997.482-4.33.482-7.26 0-10.48-5.87-10.48-12.187 0-6.922 3.813-10.923 9.885-10.923 6.332 0 6.814 4.517 7.187 6l1-.223c-.164-1.83-.36-3.903-.595-5.483-.962-.592-3.775-1.52-7.555-1.52-5.852 0-13.81 2.963-13.81 12.852 0 9.44 6.663 12.703 14.107 12.703 3.962 0 6.795-1.065 8.104-1.477.002 0-.07-2.84-.07-3.952M99.8 29.8h16.963c.484-2.007.897-3.855 1.222-6.15l-.924-.147c-.74 3.04-1.11 5.26-7.007 5.26-1.33 0-2.698-.224-4.027-.48v-10.67h3.288c2.882 0 3.547.037 3.767 1.556l.19 1.255h.976V13.76h-.977l-.19 1.26c-.22 1.52-.884 1.555-3.766 1.555h-3.288V6.395h3.065c5.23 0 5.304.552 6.12 4.516l.888-.147c0-.333-.186-4.592-.334-5.407H99.8v.797l1.336.112c1.442.145 1.442.333 1.442 4.858v12.905c0 4.53 0 4.714-1.442 4.862L99.8 29v.8zm21.087 0h8.962V29l-1.335-.11c-1.406-.148-1.406-.333-1.406-4.86v-4.897h1.37c.78 0 1.7 0 2.295.483.48.408 1.33 1.82 2.293 3.637l1.48 2.856c1.11 2.036 2.814 3.69 5.26 3.69h2.852V29c-.816 0-1.482-.146-1.853-.368-.926-.52-2.558-2.71-4.11-5.493-1-1.78-2.226-4.158-2.78-5.196 2.038-.96 5.11-3.004 5.11-6.452 0-5.63-4.962-6.137-8.477-6.137h-9.666v.796l1.334.11c1.445.15 1.445.337 1.445 4.86v12.91c0 4.527 0 4.712-1.444 4.86l-1.334.11v.8zm6.222-22.926c.74-.148 1.517-.296 2.293-.296 2.89 0 5.738 1.332 5.738 5.667 0 4.183-2.812 5.85-5.923 5.85h-2.11V6.875zm23.62 7.74c-2.003-1.185-3.592-2.37-3.592-4.555 0-2.485 1.887-4.04 4.036-4.04 4.185 0 4.777 3.223 5.146 5.075h.926c-.088-1.08-.178-3.794-.37-5.112-.963-.59-2.814-1.185-5.11-1.185-3.926 0-7.705 1.89-7.705 6.407 0 2.776 1.968 5.07 4.076 6.222l2.37 1.294c2.89 1.296 5.15 3.15 5.15 5.853 0 2.89-1.89 4.555-4.445 4.555-5.072 0-6.443-4.405-6.85-7.072l-1.185.297c.42 2.54.83 5.12 1.185 6.518 1.146.704 2.924 1.483 5.814 1.483 3.924 0 8.55-1.93 8.55-6.926 0-4.448-3.032-6-5.962-7.667l-2.03-1.15z"/><path fill-rule="evenodd" d="M37.078 41.774c-5.44.342-12.706-10.24-15.543-15.47-1.254-2.24-4.525-8.27-4.947-10.617 0 0-.032-.17-.045-.314 2.98-1.467 5.42-3.8 5.42-7.385 0-8.86-8.506-7.963-14.806-7.963L0 .023v.7L1.508.85c.89.09 1.433.203 1.682 1.075.314 1.094.23 3.922.23 5.047v15.875c0 1.13.084 3.956-.23 5.05-.25.874-.79.984-1.682 1.075L0 29.096v.696h10.498v-.696l-1.504-.126c-.874-.09-1.4-.204-1.644-1.074-.308-1.107-.22-3.917-.22-5.05l.003-6.17c.732 0 2.14-.004 2.617 0 .816 0 1.802-.006 2.56.394.493.302.934.78 1.28 1.53 1.407 2.908 2.98 6.15 4.606 8.943 3.997 6.864 10.863 15.427 18.55 15.127l.952-.033.007-.86-.627-.003zM10.618 15.66c-1.134 0-2.353.094-3.485.034l.005-14.07c.977-.193 1.964-.387 2.967-.387 4.86 0 7.577 2.924 7.577 7.69 0 4.382-2.68 6.734-7.064 6.734"/><path d="M160.81 26.145c.672 0 1.19.52 1.19 1.17 0 .662-.52 1.177-1.197 1.177-.67 0-1.205-.515-1.205-1.178 0-.647.535-1.17 1.205-1.17h.008zm-.014.236c-.513 0-.898.423-.898.935 0 .52.386.935.913.935.516.007.894-.414.894-.936 0-.512-.378-.933-.9-.933h-.007zm-.178 1.54h-.27v-1.16c.105-.02.256-.043.448-.043.22 0 .32.036.405.093.065.048.117.142.117.248 0 .134-.1.236-.242.277v.015c.113.036.178.13.214.287.035.177.057.248.084.284h-.29c-.04-.042-.06-.14-.094-.276-.022-.13-.096-.186-.244-.186h-.128v.464zm.007-.655h.128c.15 0 .27-.05.27-.17 0-.106-.076-.18-.25-.18-.07 0-.12.008-.147.016v.335z"/></g></svg>