<?xml version="1.0" encoding="utf-8"?>
<!-- Generator: Adobe Illustrator 17.0.0, SVG Export Plug-In . SVG Version: 6.00 Build 0)  -->
<!DOCTYPE svg PUBLIC "-//W3C//DTD SVG 1.1//EN" "http://www.w3.org/Graphics/SVG/1.1/DTD/svg11.dtd">
<svg version="1.1" id="Layer_1" xmlns="http://www.w3.org/2000/svg" xmlns:xlink="http://www.w3.org/1999/xlink" x="0px" y="0px"
	 width="512.294px" height="123.108px" viewBox="0 0 512.294 123.108" enable-background="new 0 0 512.294 123.108"
	 xml:space="preserve">
<g>
	<defs>
		<rect id="SVGID_1_" width="512.294" height="123.108"/>
	</defs>
	<clipPath id="SVGID_2_">
		<use xlink:href="#SVGID_1_"  overflow="visible"/>
	</clipPath>
	<path clip-path="url(#SVGID_2_)" fill="#FFFFFF" d="M0.394,92.416V76.154h7.613V19.017c-2.468-0.137-4.89-0.271-7.514-0.417V2.61
		c0.595-0.108,1.173-0.303,1.752-0.304c11.116-0.012,22.232,0.112,33.346-0.021C55.259,2.05,69.673,15.109,75.287,31.929
		c6.655,19.935-0.143,41.693-16.815,53.709c-6.124,4.413-13.032,6.753-20.632,6.771C25.495,92.437,13.151,92.416,0.394,92.416
		 M26.223,74.212c11.345,1.233,21.951,0.816,28.517-10.196c6.561-11.003,6.747-22.295,0.061-33.343
		c-6.656-10.998-17.299-11.207-28.578-10.049V74.212z"/>
	<path clip-path="url(#SVGID_2_)" fill="#FFFFFF" d="M389.959,49.978c-0.253,11.637-4.115,24.849-14.647,35.251
		c-16.071,15.874-42.205,11.609-53.779-8.999c-10.262-18.271-10.601-37.198-0.938-55.841c6.926-13.364,17.903-21.057,33.495-20.158
		c14.614,0.842,23.939,9.515,30.2,21.975C388.213,30.011,389.91,38.425,389.959,49.978 M371.738,47.456
		c0.06-6.846-1.087-13.449-4.231-19.572c-3.276-6.38-8.428-10.261-15.761-10.219c-7.188,0.041-12.627,3.763-15.264,10.226
		c-2.176,5.333-3.756,11.158-4.231,16.878c-0.774,9.33,0.634,18.513,6.784,26.181c6.713,8.37,18.989,8.382,25.719,0.073
		C370.315,64.156,371.56,55.946,371.738,47.456"/>
	<path clip-path="url(#SVGID_2_)" fill="#FFFFFF" d="M112.971,36.184h25.817v17.894h-25.815v20.348h31.81v17.758H86.981V76.216
		c2.64-0.117,5.077-0.226,7.71-0.343V18.982c-2.537-0.115-4.972-0.226-7.671-0.349V2.608h56.237V20.19h-30.286V36.184z"/>
	<path clip-path="url(#SVGID_2_)" fill="#FFFFFF" d="M151.182,4.348c5.674-1.409,11.314-2.81,17.381-4.316
		c7.63,21.819,15.208,43.491,22.786,65.163c0.268-0.001,0.536-0.002,0.804-0.003c7.545-21.574,15.09-43.149,22.776-65.127
		c5.847,1.425,11.6,2.827,17.794,4.336c-0.75,2.153-1.391,4.12-2.116,6.055c-9.806,26.17-19.656,52.324-29.389,78.521
		c-0.96,2.584-2.142,3.786-5.069,3.511c-3.346-0.313-6.753,0.075-10.112-0.159c-1.064-0.074-2.66-0.94-2.995-1.828
		c-10.721-28.359-21.316-56.765-31.924-85.166C151.079,5.232,151.129,5.096,151.182,4.348"/>
	<path clip-path="url(#SVGID_2_)" fill="#FFFFFF" d="M294.192,68.546c4.024,4.671,7.578,8.797,11.385,13.215
		c-5.338,6.727-12.153,10.739-20.395,12.177c-21.842,3.812-38.266-7.454-44.301-30.826c-4.874-18.874-1.962-36.432,10.842-51.688
		c13.431-16.003,38-13.759,50.499-2.108c0.678,0.632,1.448,1.605,1.465,2.434c0.125,5.965,0.067,11.934,0.067,18.094h-17.226
		c0-2.087-0.24-4.293,0.055-6.426c0.478-3.445-1.285-4.604-4.252-5.213c-9.567-1.965-17.128,1.462-21.295,10.329
		c-5.606,11.93-5.745,24.235-0.697,36.3c5.927,14.164,22.082,16.796,32.645,5.638C293.397,70.035,293.641,69.437,294.192,68.546"/>
	<path clip-path="url(#SVGID_2_)" fill="#FFFFFF" d="M294.495,112.508c0,2.732,0.103,5.47-0.069,8.191
		c-0.045,0.72-0.935,1.387-1.436,2.079c-0.481-0.588-1.362-1.166-1.377-1.767c-0.118-4.458-0.064-8.922-0.064-13.245
		c3.634-1.243,5.573-0.395,6.257,3.195c0.435,2.281,1.415,4.457,2.507,7.756c1.09-3.214,2.095-5.438,2.577-7.769
		c0.732-3.541,2.646-4.453,6.295-3.17c0,4.309,0.054,8.773-0.063,13.233c-0.016,0.609-0.887,1.196-1.363,1.793
		c-0.513-0.679-1.419-1.33-1.468-2.041c-0.178-2.601-0.07-5.222-0.898-8.12c-0.619,1.72-1.098,3.507-1.894,5.14
		c-0.859,1.763-2.015,3.381-3.041,5.062c-1.066-1.622-2.293-3.164-3.152-4.889c-0.873-1.753-1.384-3.687-2.053-5.542
		C295,112.445,294.748,112.477,294.495,112.508"/>
	<path clip-path="url(#SVGID_2_)" fill="#FFFFFF" d="M139.381,112.182c-0.603,2.729-1.038,5.514-1.895,8.16
		c-0.324,1-1.532,2.15-2.516,2.35c-0.696,0.141-2.2-1.039-2.471-1.903c-1.343-4.268-2.395-8.627-3.576-13.05
		c4.262-1.525,3.471,2.037,4.104,3.852c0.726,2.083,1.105,4.287,2.266,6.445c0.792-3.463,1.583-6.926,2.352-10.292
		c3.366-1.412,4.687,0.021,5.167,3.093c0.382,2.443,1.038,4.844,1.619,7.476c2.901-3.319,0.734-8.843,4.81-11.163
		c0.466,0.182,0.932,0.365,1.398,0.547c-1.221,4.628-2.372,9.276-3.748,13.857c-0.186,0.619-1.569,1.336-2.272,1.223
		c-0.868-0.139-2.077-0.955-2.313-1.73c-0.885-2.909-1.433-5.92-2.107-8.893C139.927,112.164,139.654,112.173,139.381,112.182"/>
	<path clip-path="url(#SVGID_2_)" fill="#FFFFFF" d="M38.066,112.011c-0.593,2.67-0.998,5.403-1.866,7.98
		c-0.379,1.125-1.706,1.93-2.603,2.881c-0.873-0.831-2.213-1.511-2.539-2.519c-1.333-4.124-2.356-8.348-3.519-12.631
		c4.345-1.45,3.492,2.122,4.142,3.924c0.739,2.05,1.122,4.228,2.313,6.272c0.601-2.774,1.029-5.603,1.895-8.291
		c0.311-0.965,1.683-2.2,2.565-2.195c0.887,0.005,2.231,1.242,2.558,2.214c0.905,2.689,1.384,5.521,2.683,8.38
		c0.339-1.297,0.687-2.592,1.016-3.892c0.397-1.573,0.597-3.228,1.234-4.696c0.418-0.963,1.457-1.657,2.217-2.471
		c0.357,0.275,0.714,0.551,1.072,0.827c-1.148,4.427-2.187,8.887-3.541,13.251c-0.248,0.799-1.756,1.608-2.716,1.65
		c-0.688,0.031-1.831-1.091-2.078-1.907c-0.858-2.838-1.414-5.766-2.085-8.66C38.565,112.089,38.315,112.05,38.066,112.011"/>
	<path clip-path="url(#SVGID_2_)" fill="#FFFFFF" d="M337.752,122.885c-6.819-0.112-5.51-7.218-9.634-10.298
		c0,2.904,0.133,5.415-0.076,7.897c-0.068,0.802-1.035,1.529-1.59,2.289c-0.431-0.751-1.212-1.493-1.234-2.257
		c-0.121-4.217-0.058-8.439-0.058-12.622c3.542-1.829,4.523,0.64,5.658,2.862c1.098,2.147,2.227,4.279,3.609,6.931
		c0.562-3.929,0.999-7.095,1.537-10.244c0.016-0.096,1.083-0.012,1.788-0.012V122.885z"/>
	<path clip-path="url(#SVGID_2_)" fill="#FFFFFF" d="M502.371,113.266c0,2.451,0.104,4.909-0.062,7.349
		c-0.051,0.751-0.836,1.453-1.285,2.177c-0.521-0.682-1.472-1.351-1.494-2.049c-0.14-4.337-0.07-8.681-0.07-13.37
		c7.294-0.456,5.531,7.423,9.904,9.85c0-2.77-0.107-5.332,0.069-7.876c0.048-0.71,0.928-1.363,1.427-2.042
		c0.473,0.694,1.334,1.377,1.355,2.085c0.127,4.327,0.064,8.66,0.064,12.93c-3.749,1.644-4.574-0.949-5.678-3.159
		c-1.041-2.086-2.154-4.137-3.236-6.204C503.034,113.06,502.702,113.163,502.371,113.266"/>
	<path clip-path="url(#SVGID_2_)" fill="#FFFFFF" d="M9.904,117.272c0-2.692-0.121-5.04,0.061-7.364
		c0.07-0.888,0.833-1.721,1.281-2.58c0.538,0.913,1.486,1.802,1.539,2.742c0.189,3.351,0.167,6.723,0.013,10.077
		c-0.042,0.912-0.978,2.595-1.245,2.545c-1.186-0.223-2.742-0.649-3.316-1.545c-1.657-2.584-2.905-5.431-4.313-8.175
		c-0.328,0.04-0.655,0.079-0.982,0.119c0,2.477,0.101,4.96-0.058,7.427c-0.052,0.791-0.791,1.538-1.216,2.305
		c-0.549-0.769-1.542-1.522-1.572-2.311c-0.157-4.216-0.074-8.44-0.074-13.218C7.094,107.155,5.633,114.633,9.904,117.272"/>
	<path clip-path="url(#SVGID_2_)" fill="#FFFFFF" d="M111.304,117.398v-9.638c0.34-0.224,0.68-0.449,1.021-0.674
		c0.628,0.818,1.746,1.606,1.799,2.459c0.216,3.479,0.217,6.984,0.041,10.466c-0.049,0.96-0.987,1.875-1.517,2.81
		c-1.077-0.62-2.556-0.982-3.154-1.91c-1.59-2.466-2.799-5.177-4.16-7.79l-0.957,0.111c0,2.504,0.112,5.017-0.07,7.508
		c-0.053,0.721-0.952,1.38-1.462,2.067c-0.478-0.596-1.353-1.181-1.369-1.79c-0.118-4.455-0.064-8.915-0.064-13.741
		C108.525,107.311,107.028,114.624,111.304,117.398"/>
	<path clip-path="url(#SVGID_2_)" fill="#FFFFFF" d="M57.599,106.489c3.737,0.942,6.974,1.369,9.762,2.72
		c0.742,0.36,0.112,3.552,0.112,6.332c0.138,0.938,1.233,3.313,0.475,4.584c-0.851,1.429-3.311,2.398-5.184,2.622
		c-5.154,0.617-5.174,0.421-5.166-4.724C57.604,114.581,57.599,111.139,57.599,106.489 M60.243,119.299
		c0.588,0.505,1.176,1.01,1.763,1.515c1.149-0.906,2.297-1.813,3.445-2.72c-0.976-0.746-1.951-1.492-2.927-2.238L60.243,119.299z
		 M66.185,111.341c-1.926-0.817-2.904-1.607-3.707-1.458c-0.677,0.126-1.151,1.344-1.714,2.078c0.676,0.483,1.39,1.398,2.019,1.343
		C63.638,113.229,64.428,112.412,66.185,111.341"/>
	<path clip-path="url(#SVGID_2_)" fill="#FFFFFF" d="M388.714,114.893c0.045,4.932-3.069,8.23-7.758,8.215
		c-4.474-0.013-7.514-3.198-7.627-7.991c-0.115-4.83,3.138-8.261,7.777-8.203C385.652,106.969,388.671,110.137,388.714,114.893
		 M376.687,114.904c0.15,2.886,0.811,5.378,4.214,5.644c2.725,0.213,4.572-2.192,4.532-5.656c-0.039-3.271-1.798-5.518-4.417-5.377
		C377.614,109.699,376.857,112.134,376.687,114.904"/>
	<path clip-path="url(#SVGID_2_)" fill="#FFFFFF" d="M276.264,115.084c-0.072,4.925-3.26,8.126-7.965,7.997
		c-4.507-0.123-7.418-3.328-7.415-8.164c0.002-4.881,3.264-8.163,7.957-8.005C273.345,107.063,276.334,110.354,276.264,115.084
		 M264.215,114.827c0.105,3.016,0.908,5.44,4.227,5.764c2.663,0.26,4.572-2.268,4.524-5.695c-0.047-3.326-1.762-5.472-4.427-5.346
		C265.1,109.712,264.366,112.139,264.215,114.827"/>
	<path clip-path="url(#SVGID_2_)" fill="#FFFFFF" d="M443.589,115.324c0.811,1.954,1.629,3.905,2.427,5.864
		c0.134,0.329,0.185,0.692,0.301,1.145c-2.423,1.336-3.256-0.134-4.105-1.997c-0.68-1.49-1.685-2.833-2.546-4.241
		c-0.429,0.153-0.857,0.307-1.286,0.46c-0.102,1.407-0.047,2.852-0.369,4.206c-0.183,0.767-0.985,1.386-1.509,2.071
		c-0.537-0.682-1.516-1.349-1.539-2.048c-0.143-4.333-0.072-8.673-0.072-13.496c3.814,0.382,7.825-1.559,10.178,2.218
		c0.836,1.342-0.298,3.91-0.532,5.918C444.221,115.391,443.905,115.357,443.589,115.324 M438.313,113.612
		c0.338,0.267,0.676,0.535,1.014,0.802c1.042-0.894,2.084-1.788,3.126-2.683c-1.156-0.807-2.311-1.615-4.14-2.893V113.612z"/>
	<path clip-path="url(#SVGID_2_)" fill="#FFFFFF" d="M496.804,115.027c-0.014,4.806-2.985,8.006-7.495,8.074
		c-4.709,0.07-7.842-3.158-7.867-8.106c-0.024-4.765,2.981-7.991,7.507-8.059C493.686,106.865,496.818,110.091,496.804,115.027
		 M489.062,109.501c-2.636,0.061-4.276,2.188-4.27,5.538c0.006,3.498,1.877,5.84,4.648,5.537c3.373-0.37,4.054-2.994,4.128-5.733
		C493.655,111.613,491.683,109.44,489.062,109.501"/>
	<path clip-path="url(#SVGID_2_)" fill="#FFFFFF" d="M194.133,122.726v-15.357c4.447-0.014,9.003-1.095,12.009,3.168
		c1.938,2.748,1.864,6.097,0.055,8.837C203.315,123.741,198.713,122.786,194.133,122.726 M197.263,121.138
		c2.46-1.309,4.945-1.841,5.835-3.327c0.877-1.466,0.829-4.334-0.085-5.782c-0.901-1.427-3.399-1.844-5.75-2.969V121.138z"/>
	<path clip-path="url(#SVGID_2_)" fill="#FFFFFF" d="M432.397,115.132c-0.062,4.934-3.201,8.081-7.948,7.969
		c-4.526-0.106-7.274-3.212-7.262-8.208c0.012-4.974,3.152-8.159,7.871-7.983C429.565,107.079,432.458,110.32,432.397,115.132
		 M425.333,109.549c-3.201-0.051-4.965,2.016-4.949,5.334c0.014,2.854,0.868,5.28,4.149,5.691c2.612,0.327,4.746-2.255,4.643-5.583
		C429.088,112.152,428.144,109.845,425.333,109.549"/>
	<path clip-path="url(#SVGID_2_)" fill="#FFFFFF" d="M71.107,107.307c3.963,0.297,7.943-1.436,10.181,2.192
		c0.822,1.333-0.32,3.878-0.566,5.87c-0.319-0.035-0.638-0.071-0.956-0.107c0.939,2.28,1.879,4.56,2.86,6.941
		c-2.623,1.509-3.371-0.085-4.222-1.884c-0.708-1.499-1.724-2.853-2.603-4.272l-1.288,0.451c-0.102,1.412-0.054,2.857-0.363,4.222
		c-0.174,0.772-0.935,1.412-1.432,2.111c-0.537-0.664-1.517-1.314-1.539-1.995C71.037,116.499,71.107,112.155,71.107,107.307
		 M75.372,109.215c-0.524,0.509-1.047,1.019-1.571,1.528c0.707,1.063,1.413,2.125,2.12,3.188c0.885-0.673,1.77-1.346,2.654-2.019
		L75.372,109.215z"/>
	<path clip-path="url(#SVGID_2_)" fill="#FFFFFF" d="M391.232,107.466c2.91,0,5.17-0.237,7.357,0.06
		c2.79,0.379,4.599,3.196,3.02,5.107c-2.3,2.782-0.776,4.833,0.153,7.202c0.307,0.784,0.521,1.605,0.847,2.627
		c-5.585,1.633-3.181-6.543-8.131-5.854c-0.071,1.366,0.01,2.813-0.278,4.181c-0.156,0.742-0.941,1.351-1.442,2.019
		c-0.509-0.697-1.435-1.381-1.457-2.094C391.163,116.392,391.232,112.062,391.232,107.466 M395.245,109.276
		c-0.331,0.366-0.663,0.731-0.994,1.097c0.079,1.066,0.159,2.132,0.334,4.489c1.802-1.364,2.945-2.23,4.088-3.095
		C397.53,110.936,396.388,110.106,395.245,109.276"/>
	<path clip-path="url(#SVGID_2_)" fill="#FFFFFF" d="M447.693,122.14c1.717-4.391,3.358-8.815,5.223-13.142
		c0.336-0.779,1.559-1.508,2.448-1.611c0.693-0.081,1.906,0.671,2.197,1.35c1.901,4.437,3.614,8.955,4.789,14.161
		c-2.356-1.173-4.704-3.243-7.071-3.265c-2.318-0.021-4.654,2.043-6.983,3.192C448.095,122.597,447.894,122.368,447.693,122.14
		 M457.466,116.659c-0.775-2.149-1.347-3.734-2.232-6.19c-0.879,2.519-1.462,4.189-2.161,6.19H457.466z"/>
	<path clip-path="url(#SVGID_2_)" fill="#FFFFFF" d="M185.285,122.475c-5.608,1.518-5.744-4.38-9.239-5.664
		c-0.06,1.308,0.077,2.548-0.23,3.666c-0.233,0.85-1.029,1.545-1.575,2.309c-0.481-0.725-1.355-1.437-1.379-2.175
		c-0.133-4.231-0.065-8.468-0.065-12.652c2.838-0.568,2.838-0.568,3.33,4.818c3.237-0.939,3.552-6.719,8.676-5.085
		c-2.012,2.412-3.824,4.583-5.74,6.881C181.101,117.162,183.069,119.661,185.285,122.475"/>
	<path clip-path="url(#SVGID_2_)" fill="#FFFFFF" d="M85.099,113.363c0-0.998-0.21-2.056,0.055-2.977
		c0.311-1.085,1.035-2.051,1.58-3.068c0.473,1.08,1.226,2.128,1.358,3.248c0.232,1.97-0.298,4.089,0.213,5.946
		c0.419,1.52,1.688,3.63,2.939,3.918c2.379,0.548,3.419-1.499,3.491-3.757c0.08-2.493-0.06-4.998,0.15-7.476
		c0.057-0.667,1.038-1.256,1.595-1.881c0.463,0.585,1.305,1.156,1.327,1.757c0.113,3.112,0.222,6.251-0.064,9.343
		c-0.295,3.185-2.759,4.79-6.553,4.678c-3.221-0.095-5.614-1.343-5.994-4.873c-0.172-1.602-0.029-3.238-0.029-4.858
		C85.145,113.363,85.122,113.363,85.099,113.363"/>
	<path clip-path="url(#SVGID_2_)" fill="#FFFFFF" d="M405.011,107.723c6.361-1.126,9.743-0.014,10.441,3.27
		c0.726,3.419-1.121,5.126-7.127,6.395c-0.061,1.141,0.066,2.41-0.26,3.55c-0.208,0.728-1.087,1.264-1.665,1.886
		c-0.463-0.599-1.312-1.187-1.328-1.797C404.958,116.574,405.011,112.117,405.011,107.723 M408.379,115.357
		c1.761-1.437,2.79-2.277,3.819-3.118c-0.99-0.962-1.98-1.925-2.97-2.888l-0.849,0.789V115.357z"/>
	<path clip-path="url(#SVGID_2_)" fill="#FFFFFF" d="M16.655,107.481h8.661c0.133,0.395,0.267,0.789,0.4,1.184
		c-1.061,0.346-2.13,1.001-3.182,0.976c-2.546-0.062-3.462,0.862-2.574,3.613c1.008,0.067,2.122,0.006,3.162,0.255
		c0.7,0.167,1.296,0.772,1.939,1.181c-0.622,0.427-1.191,1.054-1.878,1.233c-0.929,0.242-1.948,0.142-3.298,0.206
		c-0.103,1.281-0.195,2.435-0.336,4.19c1.781,0,3.239-0.116,4.661,0.059c0.545,0.066,1.01,0.796,1.511,1.223
		c-0.514,0.405-1.011,1.132-1.544,1.16c-2.445,0.125-4.9,0.055-7.522,0.055V107.481z"/>
	<path clip-path="url(#SVGID_2_)" fill="#FFFFFF" d="M235.448,108.003c-1.483,4.359-2.885,8.748-4.522,13.048
		c-0.299,0.787-1.539,1.657-2.367,1.68c-0.83,0.022-2.164-0.783-2.457-1.542c-1.694-4.397-3.146-8.888-4.718-13.459
		c4.158-1.415,3.778,1.981,4.559,3.815c0.915,2.15,1.509,4.436,2.35,6.99c3.163-3.443,1.516-9.312,5.958-11.388
		C234.65,107.432,235.049,107.718,235.448,108.003"/>
	<path clip-path="url(#SVGID_2_)" fill="#FFFFFF" d="M322.072,108.815c-1.119,0.298-2.249,0.88-3.355,0.837
		c-2.788-0.106-3.11,1.229-2.485,3.402c1.859,0.394,3.598,0.762,5.336,1.131c-0.069,0.48-0.139,0.96-0.209,1.439
		c-1.66,0.224-3.32,0.447-5.169,0.696v3.788c1.424,0.069,2.664,0.008,3.849,0.234c0.706,0.134,1.325,0.72,1.984,1.104
		c-0.58,0.464-1.136,1.287-1.744,1.329c-2.326,0.157-4.67,0.063-7.26,0.063v-15.299h8.77
		C321.883,107.964,321.978,108.39,322.072,108.815"/>
	<path clip-path="url(#SVGID_2_)" fill="#FFFFFF" d="M278.764,107.752c6.423-1.158,9.868,0.018,10.421,3.322
		c0.598,3.568-0.924,4.945-7.393,6.365c0,1.089,0.148,2.314-0.056,3.476c-0.121,0.685-0.801,1.272-1.229,1.902
		c-0.581-0.622-1.644-1.228-1.666-1.868C278.694,116.523,278.764,112.09,278.764,107.752 M282.06,113.845
		c0.276,0.313,0.553,0.627,0.829,0.94c1.05-0.836,2.101-1.673,3.151-2.509c-1.01-0.996-2.02-1.992-3.03-2.987
		c-0.317,0.238-0.633,0.477-0.95,0.715V113.845z"/>
	<path clip-path="url(#SVGID_2_)" fill="#FFFFFF" d="M213.63,116.767v3.313c1.392,0.078,2.631,0.021,3.809,0.26
		c0.709,0.144,1.323,0.75,1.98,1.148c-0.604,0.446-1.183,1.231-1.815,1.276c-2.218,0.158-4.455,0.061-6.973,0.061v-15.291h8.628
		c0.095,0.427,0.189,0.854,0.284,1.281c-1.124,0.296-2.255,0.865-3.369,0.834c-2.795-0.079-3.15,1.207-2.596,2.882
		c2.098,0.913,3.725,1.622,5.353,2.33C217.305,115.446,215.679,116.03,213.63,116.767"/>
	<path clip-path="url(#SVGID_2_)" fill="#FFFFFF" d="M241.174,112.586c2.158,0.886,3.703,1.521,5.247,2.155
		c-1.564,0.637-3.128,1.273-5.214,2.122c-0.03,0.602-0.088,1.756-0.16,3.204c1.743,0.099,3.207,0.103,4.642,0.307
		c0.484,0.069,0.895,0.647,1.339,0.992c-0.443,0.476-0.863,1.337-1.331,1.364c-2.448,0.138-4.908,0.064-7.558,0.064v-15.307h8.579
		c0.128,0.402,0.256,0.804,0.384,1.206c-1.067,0.334-2.143,0.973-3.2,0.942C241.298,109.558,240.504,110.572,241.174,112.586"/>
	<path clip-path="url(#SVGID_2_)" fill="#FFFFFF" d="M126.038,109.259c-0.218,0.106-0.427,0.235-0.655,0.313
		c-1.592,0.548-3.189,1.085-4.784,1.626c1.258,1.011,2.701,1.866,3.725,3.075c1.182,1.396,2.551,3.033,2.769,4.705
		c0.14,1.066-1.5,3.192-2.627,3.418c-2.126,0.425-4.459-0.163-6.697-0.411c-0.088-0.01-0.082-0.862-0.113-1.243
		c0.361-0.239,0.545-0.448,0.761-0.491c1.81-0.359,3.626-0.688,5.44-1.026c-1.295-1.207-2.781-2.269-3.834-3.66
		c-1.091-1.441-2.642-3.368-2.373-4.772c0.276-1.442,2.332-3.022,3.943-3.582c1.37-0.476,3.215,0.413,4.85,0.699
		C126.308,108.359,126.173,108.809,126.038,109.259"/>
	<path clip-path="url(#SVGID_2_)" fill="#FFFFFF" d="M371.983,109.541c-6.746-0.073-9.133,1.467-9.181,5.379
		c-0.05,4.106,2.499,5.793,8.675,5.592c0.5,2.827-1.696,2.518-3.197,2.582c-4.762,0.202-7.994-2.335-8.56-6.521
		c-0.642-4.75,1.638-8.385,5.97-9.288C367.951,106.814,370.451,106.055,371.983,109.541"/>
	<path clip-path="url(#SVGID_2_)" fill="#FFFFFF" d="M170.86,109.397c-7.318,0.274-9.396,1.735-9.278,5.884
		c0.113,4.013,2.354,5.418,8.404,5.271c0.147,0.331,0.295,0.662,0.442,0.993c-1.176,0.524-2.33,1.435-3.533,1.505
		c-4.597,0.268-7.777-2.216-8.387-6.232c-0.712-4.682,1.312-8.416,5.327-9.425C166.178,106.804,168.744,106.093,170.86,109.397"/>
	<path clip-path="url(#SVGID_2_)" fill="#FFFFFF" d="M466.249,110.403c-2.015-0.73-3.338-1.209-4.661-1.689
		c0.121-0.396,0.242-0.793,0.363-1.189h11.622l0.389,1.168c-1.31,0.506-2.619,1.012-4.579,1.768c0,2.96,0.095,6.397-0.066,9.822
		c-0.041,0.864-0.898,1.69-1.38,2.533c-0.563-0.88-1.56-1.736-1.611-2.645C466.134,116.751,466.249,113.313,466.249,110.403"/>
	<path clip-path="url(#SVGID_2_)" fill="#FFFFFF" d="M339.754,107.57h12.158c0.108,0.407,0.217,0.813,0.325,1.22
		c-1.35,0.453-2.699,0.907-4.652,1.563c0,3.021,0.092,6.46-0.063,9.888c-0.04,0.877-0.86,1.718-1.321,2.576
		c-0.579-0.867-1.476-1.671-1.661-2.614c-0.281-1.435-0.039-2.968-0.072-4.458c-0.065-2.873,1.169-6.555-3.917-6.411
		C340.379,109.339,340.185,108.549,339.754,107.57"/>
	<path clip-path="url(#SVGID_2_)" fill="#FFFFFF" d="M250.341,122.847c0-4.86-0.067-9.195,0.069-13.524
		c0.022-0.681,0.964-1.332,1.48-1.997c0.524,0.673,1.47,1.327,1.502,2.022c0.155,3.462,0.071,6.934,0.071,10.936
		c1.548,0,2.762-0.137,3.924,0.05c0.712,0.115,1.344,0.726,2.013,1.114c-0.59,0.467-1.154,1.292-1.772,1.335
		C255.312,122.943,252.978,122.847,250.341,122.847"/>
	<path clip-path="url(#SVGID_2_)" fill="#FFFFFF" d="M155.623,115.288c0,1.996,0.09,3.998-0.059,5.983
		c-0.04,0.538-0.8,1.023-1.23,1.532c-0.576-0.492-1.636-0.969-1.652-1.479c-0.137-4.236-0.124-8.479-0.019-12.717
		c0.011-0.442,1.091-1.311,1.362-1.202c0.638,0.257,1.49,0.949,1.54,1.528c0.183,2.104,0.073,4.234,0.073,6.355H155.623z"/>
	<path clip-path="url(#SVGID_2_)" fill="#FFFFFF" d="M476.971,106.977c0.618,0.799,1.728,1.574,1.768,2.401
		c0.188,3.845,0.139,7.708,0.017,11.559c-0.02,0.632-0.83,1.238-1.275,1.857c-0.561-0.627-1.587-1.239-1.608-1.884
		c-0.142-4.444-0.075-8.895-0.075-13.344C476.189,107.369,476.58,107.173,476.971,106.977"/>
</g>
</svg>
