<svg xmlns="http://www.w3.org/2000/svg" xmlns:xlink="http://www.w3.org/1999/xlink" width="512.294" height="123.108" viewBox="0 0 512.294 123.108"><defs><path id="a" d="M0 0h512.294v123.108H0z"/></defs><clipPath id="b"><use xlink:href="#a" overflow="visible"/></clipPath><path clip-path="url(#b)" fill="#FFF" d="M.394 92.416V76.154h7.613V19.017c-2.468-.137-4.89-.27-7.514-.417V2.61c.595-.108 1.173-.303 1.752-.304 11.116-.012 22.232.112 33.346-.02 19.67-.236 34.083 12.823 39.697 29.643 6.655 19.934-.143 41.692-16.815 53.708-6.124 4.413-13.032 6.753-20.632 6.77-12.345.03-24.69.008-37.446.008m25.83-18.204c11.344 1.233 21.95.816 28.516-10.196 6.56-11.003 6.747-22.295.06-33.343-6.655-10.998-17.298-11.207-28.577-10.05v53.59zM389.96 49.978c-.254 11.637-4.116 24.85-14.648 35.25-16.07 15.875-42.205 11.61-53.78-8.998-10.26-18.27-10.6-37.198-.937-55.84C327.52 7.024 338.498-.67 354.09.23c14.614.843 23.94 9.516 30.2 21.976 3.923 7.805 5.62 16.22 5.67 27.772m-18.222-2.522c.06-6.846-1.087-13.45-4.23-19.572-3.277-6.38-8.43-10.26-15.762-10.22-7.188.042-12.627 3.764-15.264 10.227-2.176 5.334-3.756 11.16-4.23 16.88-.775 9.33.633 18.512 6.783 26.18 6.713 8.37 18.99 8.382 25.72.073 5.56-6.867 6.805-15.077 6.983-23.567M112.97 36.184h25.818v17.894h-25.815v20.348h31.81v17.758H86.98V76.216l7.71-.343v-56.89l-7.67-.35V2.608h56.237V20.19H112.97v15.994zM151.182 4.348l17.38-4.316c7.63 21.82 15.21 43.49 22.787 65.163l.803-.003L214.93.065 232.722 4.4c-.75 2.154-1.39 4.12-2.116 6.056-9.806 26.17-19.656 52.324-29.39 78.52-.96 2.585-2.14 3.787-5.068 3.512-3.347-.313-6.754.075-10.113-.16-1.064-.073-2.66-.94-2.995-1.827-10.72-28.358-21.316-56.764-31.924-85.165-.04-.103.01-.24.064-.987M294.192 68.546l11.385 13.215c-5.338 6.728-12.153 10.74-20.395 12.178-21.842 3.812-38.266-7.454-44.3-30.826-4.875-18.874-1.963-36.432 10.84-51.688 13.432-16.003 38-13.76 50.5-2.108.678.632 1.448 1.605 1.465 2.434.125 5.965.067 11.934.067 18.094h-17.226c0-2.087-.24-4.293.055-6.426.478-3.445-1.285-4.604-4.252-5.213-9.566-1.965-17.127 1.462-21.294 10.33-5.606 11.93-5.745 24.234-.697 36.3 5.926 14.163 22.08 16.795 32.644 5.637.413-.437.657-1.035 1.208-1.926M294.495 112.508c0 2.732.103 5.47-.07 8.19-.044.72-.934 1.388-1.435 2.08-.48-.588-1.362-1.166-1.377-1.767-.118-4.457-.064-8.92-.064-13.244 3.633-1.243 5.572-.395 6.256 3.195.435 2.282 1.415 4.458 2.507 7.757 1.09-3.214 2.095-5.438 2.577-7.77.732-3.54 2.646-4.452 6.295-3.17 0 4.31.054 8.774-.063 13.234-.016.61-.887 1.197-1.363 1.794-.514-.68-1.42-1.33-1.47-2.04-.177-2.602-.07-5.223-.897-8.12-.62 1.72-1.098 3.506-1.894 5.14-.86 1.762-2.016 3.38-3.042 5.06-1.066-1.62-2.293-3.163-3.152-4.888-.873-1.753-1.384-3.687-2.053-5.542-.253.03-.505.063-.758.094M139.38 112.182c-.602 2.73-1.037 5.514-1.894 8.16-.324 1-1.532 2.15-2.516 2.35-.696.14-2.2-1.04-2.47-1.903-1.344-4.27-2.396-8.628-3.577-13.05 4.262-1.526 3.47 2.036 4.104 3.85.726 2.084 1.105 4.288 2.266 6.446l2.352-10.292c3.366-1.412 4.687.02 5.167 3.093.382 2.443 1.038 4.844 1.62 7.476 2.9-3.32.733-8.843 4.81-11.163l1.397.547c-1.222 4.628-2.373 9.276-3.75 13.857-.185.62-1.568 1.336-2.27 1.223-.87-.14-2.078-.955-2.314-1.73-.885-2.91-1.433-5.92-2.107-8.893-.273.01-.546.02-.82.028M38.066 112.01c-.593 2.67-.998 5.404-1.866 7.98-.38 1.126-1.706 1.93-2.603 2.882-.873-.83-2.213-1.51-2.54-2.52-1.332-4.123-2.355-8.347-3.518-12.63 4.344-1.45 3.49 2.122 4.14 3.924.74 2.05 1.123 4.228 2.314 6.272.6-2.774 1.03-5.603 1.895-8.29.31-.966 1.682-2.2 2.564-2.196.887.005 2.23 1.242 2.558 2.214.905 2.69 1.384 5.52 2.683 8.38.34-1.297.687-2.592 1.016-3.892.398-1.573.598-3.228 1.235-4.696.418-.963 1.457-1.657 2.217-2.47l1.072.826c-1.148 4.427-2.187 8.887-3.54 13.25-.25.8-1.757 1.61-2.717 1.65-.688.032-1.83-1.09-2.078-1.906-.86-2.838-1.415-5.766-2.086-8.66l-.748-.117M337.752 122.885c-6.82-.112-5.51-7.218-9.634-10.298 0 2.904.133 5.415-.076 7.897-.068.802-1.035 1.53-1.59 2.29-.43-.752-1.212-1.494-1.234-2.258-.12-4.217-.058-8.44-.058-12.622 3.542-1.83 4.523.64 5.658 2.862 1.098 2.147 2.227 4.28 3.61 6.93.56-3.928.998-7.094 1.536-10.243.016-.096 1.083-.012 1.788-.012v15.455zM502.37 113.266c0 2.45.105 4.91-.06 7.35-.052.75-.837 1.452-1.286 2.176-.52-.682-1.472-1.35-1.494-2.05-.14-4.336-.07-8.68-.07-13.37 7.294-.455 5.53 7.424 9.904 9.85 0-2.77-.107-5.33.07-7.875.047-.71.927-1.363 1.426-2.042.473.694 1.334 1.377 1.355 2.085.127 4.327.064 8.66.064 12.93-3.75 1.644-4.575-.95-5.68-3.16-1.04-2.085-2.153-4.136-3.235-6.203l-.994.31M9.904 117.272c0-2.692-.12-5.04.06-7.364.07-.888.834-1.72 1.282-2.58.538.913 1.486 1.802 1.54 2.742.188 3.35.166 6.723.012 10.077-.042.912-.978 2.595-1.245 2.545-1.186-.223-2.742-.65-3.316-1.545-1.657-2.584-2.905-5.43-4.313-8.175l-.982.12c0 2.476.1 4.96-.058 7.426-.052.79-.79 1.538-1.216 2.305-.55-.77-1.542-1.522-1.572-2.31-.157-4.217-.074-8.44-.074-13.22 7.072-.138 5.61 7.34 9.882 9.98M111.304 117.398v-9.638l1.02-.674c.63.818 1.747 1.606 1.8 2.46.216 3.478.217 6.983.04 10.465-.048.96-.986 1.876-1.516 2.81-1.077-.62-2.556-.98-3.154-1.91-1.59-2.465-2.8-5.176-4.16-7.79l-.957.112c0 2.504.112 5.017-.07 7.508-.053.72-.952 1.38-1.462 2.067-.478-.596-1.353-1.18-1.37-1.79-.117-4.455-.063-8.915-.063-13.74 7.113.034 5.616 7.347 9.892 10.12M57.6 106.49c3.736.94 6.973 1.368 9.76 2.72.743.36.113 3.55.113 6.33.138.94 1.233 3.314.475 4.585-.85 1.43-3.31 2.398-5.184 2.622-5.154.617-5.174.42-5.166-4.724.006-3.442 0-6.884 0-11.534m2.645 12.81l1.763 1.514c1.15-.906 2.297-1.813 3.445-2.72l-2.926-2.238-2.28 3.443zm5.942-7.96c-1.926-.816-2.904-1.606-3.707-1.457-.677.126-1.15 1.344-1.714 2.078.676.484 1.39 1.4 2.02 1.344.854-.075 1.644-.892 3.4-1.963M388.714 114.893c.045 4.932-3.07 8.23-7.758 8.215-4.474-.013-7.514-3.198-7.627-7.99-.116-4.83 3.137-8.262 7.776-8.204 4.546.055 7.565 3.223 7.608 7.98m-12.027.01c.15 2.886.81 5.378 4.214 5.644 2.726.213 4.573-2.192 4.533-5.656-.04-3.27-1.798-5.518-4.417-5.377-3.402.184-4.16 2.62-4.33 5.39M276.264 115.084c-.072 4.925-3.26 8.126-7.965 7.997-4.508-.122-7.42-3.327-7.416-8.163.002-4.88 3.264-8.163 7.957-8.005 4.505.15 7.494 3.442 7.424 8.172m-12.05-.257c.106 3.016.91 5.44 4.228 5.764 2.663.26 4.572-2.267 4.524-5.694-.047-3.326-1.762-5.472-4.427-5.346-3.44.162-4.174 2.59-4.325 5.277M443.59 115.324c.81 1.954 1.628 3.905 2.426 5.864.134.33.185.692.3 1.145-2.422 1.336-3.255-.134-4.104-1.997-.68-1.49-1.685-2.833-2.546-4.24-.43.152-.857.306-1.286.46-.102 1.406-.047 2.85-.37 4.205-.182.768-.984 1.387-1.508 2.072-.537-.682-1.516-1.35-1.54-2.048-.142-4.333-.07-8.673-.07-13.496 3.813.382 7.824-1.56 10.177 2.218.835 1.342-.3 3.91-.533 5.918l-.948-.1m-5.277-1.712l1.014.802 3.126-2.683c-1.156-.806-2.31-1.614-4.14-2.892v4.774zM496.804 115.027c-.014 4.806-2.985 8.006-7.495 8.074-4.71.07-7.843-3.157-7.868-8.105-.024-4.765 2.98-7.99 7.507-8.06 4.736-.07 7.868 3.156 7.854 8.092m-7.742-5.526c-2.636.062-4.276 2.19-4.27 5.54.006 3.497 1.877 5.84 4.648 5.536 3.373-.37 4.054-2.994 4.128-5.733.087-3.23-1.885-5.403-4.506-5.342M194.133 122.726V107.37c4.447-.015 9.003-1.096 12.01 3.167 1.937 2.748 1.863 6.097.054 8.837-2.882 4.367-7.484 3.412-12.064 3.352m3.13-1.588c2.46-1.31 4.945-1.84 5.835-3.327.877-1.465.83-4.333-.085-5.78-.9-1.428-3.4-1.845-5.75-2.97v12.078zM432.397 115.132c-.062 4.934-3.2 8.08-7.948 7.97-4.527-.107-7.275-3.213-7.263-8.21.012-4.973 3.152-8.158 7.87-7.982 4.508.17 7.4 3.41 7.34 8.222m-7.064-5.583c-3.2-.052-4.965 2.015-4.95 5.333.015 2.854.87 5.28 4.15 5.69 2.612.328 4.746-2.254 4.643-5.582-.088-2.838-1.032-5.145-3.843-5.44M71.107 107.307c3.963.297 7.943-1.436 10.18 2.192.823 1.332-.32 3.877-.565 5.87l-.956-.108 2.86 6.94c-2.623 1.51-3.37-.084-4.222-1.883-.708-1.5-1.724-2.854-2.603-4.273l-1.287.45c-.102 1.413-.054 2.858-.363 4.223-.174.772-.935 1.412-1.432 2.11-.537-.663-1.517-1.313-1.54-1.994-.14-4.337-.07-8.68-.07-13.53m4.264 1.91c-.524.508-1.047 1.018-1.57 1.527l2.12 3.188c.884-.672 1.77-1.345 2.653-2.018l-3.203-2.697zM391.232 107.466c2.91 0 5.17-.237 7.357.06 2.79.38 4.598 3.196 3.02 5.107-2.3 2.782-.777 4.833.152 7.202.307.784.52 1.605.847 2.627-5.586 1.633-3.182-6.543-8.132-5.854-.07 1.366.01 2.813-.278 4.18-.156.743-.94 1.352-1.442 2.02-.51-.697-1.435-1.38-1.457-2.094-.137-4.322-.068-8.652-.068-13.248m4.013 1.81c-.33.366-.663.73-.994 1.097l.335 4.49 4.088-3.096-3.428-2.49M447.693 122.14c1.717-4.39 3.358-8.815 5.223-13.142.336-.78 1.56-1.508 2.448-1.61.693-.082 1.906.67 2.197 1.35 1.902 4.436 3.615 8.954 4.79 14.16-2.356-1.173-4.704-3.243-7.07-3.265-2.32-.02-4.655 2.043-6.984 3.192l-.603-.685m9.773-5.48l-2.232-6.19c-.88 2.518-1.462 4.188-2.16 6.19h4.392zM185.285 122.475c-5.608 1.518-5.744-4.38-9.24-5.664-.06 1.31.078 2.55-.23 3.667-.232.85-1.028 1.545-1.574 2.31-.48-.726-1.354-1.438-1.378-2.176-.133-4.23-.065-8.467-.065-12.65 2.838-.57 2.838-.57 3.33 4.817 3.237-.94 3.552-6.72 8.676-5.085l-5.74 6.88c2.038 2.59 4.006 5.09 6.222 7.903M85.1 113.363c0-.998-.21-2.056.054-2.977.31-1.085 1.035-2.05 1.58-3.068.473 1.08 1.226 2.128 1.358 3.248.232 1.97-.298 4.09.213 5.946.42 1.52 1.688 3.63 2.94 3.918 2.378.548 3.418-1.5 3.49-3.757.08-2.493-.06-4.998.15-7.476.057-.667 1.038-1.256 1.595-1.88.463.584 1.305 1.155 1.327 1.756.113 3.112.222 6.25-.064 9.343-.295 3.185-2.76 4.79-6.553 4.678-3.22-.095-5.614-1.343-5.994-4.873-.172-1.6-.03-3.237-.03-4.857H85.1M405.01 107.723c6.362-1.126 9.744-.014 10.442 3.27.726 3.42-1.12 5.126-7.127 6.395-.06 1.14.066 2.41-.26 3.55-.208.728-1.087 1.264-1.665 1.886-.463-.6-1.312-1.187-1.328-1.797-.114-4.453-.06-8.91-.06-13.304m3.367 7.634c1.76-1.437 2.79-2.277 3.818-3.118l-2.97-2.89-.85.79v5.217zM16.655 107.48h8.66c.134.396.268.79.4 1.185-1.06.346-2.13 1-3.18.976-2.547-.06-3.463.863-2.575 3.614 1.008.067 2.122.006 3.162.255.7.166 1.296.77 1.94 1.18-.623.427-1.192 1.054-1.88 1.233-.928.242-1.947.142-3.297.206l-.336 4.19c1.78 0 3.238-.117 4.66.058.545.066 1.01.796 1.51 1.223-.513.406-1.01 1.133-1.543 1.16-2.445.126-4.9.056-7.522.056V107.48zM235.448 108.003c-1.483 4.36-2.885 8.748-4.522 13.048-.3.788-1.54 1.658-2.367 1.68-.83.023-2.165-.782-2.458-1.54-1.694-4.398-3.146-8.89-4.718-13.46 4.158-1.415 3.778 1.98 4.56 3.815.914 2.15 1.508 4.436 2.35 6.99 3.162-3.443 1.515-9.312 5.957-11.388.4.285.8.57 1.198.856M322.072 108.815c-1.12.298-2.25.88-3.355.837-2.788-.106-3.11 1.23-2.485 3.402l5.336 1.13-.21 1.44-5.168.696v3.788c1.424.07 2.664.008 3.85.234.705.134 1.324.72 1.983 1.104-.58.464-1.136 1.287-1.744 1.33-2.327.156-4.67.062-7.26.062v-15.3h8.77c.093.426.188.852.282 1.277M278.764 107.752c6.423-1.158 9.868.018 10.42 3.322.6 3.568-.923 4.945-7.392 6.365 0 1.088.148 2.313-.056 3.475-.12.685-.8 1.272-1.23 1.902-.58-.622-1.643-1.228-1.665-1.868-.146-4.427-.076-8.86-.076-13.198m3.296 6.093l.83.94 3.15-2.51-3.03-2.986-.95.714v3.84zM213.63 116.767v3.313c1.392.078 2.63.02 3.81.26.708.144 1.322.75 1.98 1.148-.605.446-1.184 1.23-1.816 1.276-2.218.158-4.455.06-6.973.06v-15.29h8.63l.283 1.28c-1.124.297-2.255.866-3.37.835-2.794-.08-3.15 1.206-2.595 2.88 2.098.914 3.725 1.623 5.353 2.33-1.625.586-3.25 1.17-5.3 1.907M241.174 112.586l5.247 2.155c-1.563.638-3.127 1.274-5.213 2.123l-.16 3.204c1.743.1 3.207.103 4.642.307.483.07.894.647 1.338.992-.443.476-.863 1.337-1.33 1.364-2.45.138-4.91.064-7.56.064v-15.307h8.58l.384 1.206c-1.067.334-2.143.973-3.2.942-2.604-.077-3.398.937-2.728 2.95M126.038 109.26c-.218.105-.427.234-.655.312-1.592.548-3.19 1.085-4.784 1.626 1.257 1.01 2.7 1.866 3.724 3.075 1.182 1.396 2.55 3.033 2.77 4.705.14 1.066-1.5 3.192-2.628 3.418-2.126.425-4.46-.163-6.697-.41-.09-.01-.083-.863-.114-1.244.36-.24.545-.448.76-.49 1.81-.36 3.627-.69 5.44-1.027-1.294-1.207-2.78-2.27-3.833-3.66-1.09-1.44-2.642-3.368-2.373-4.772.276-1.442 2.332-3.022 3.943-3.582 1.37-.475 3.215.414 4.85.7l-.405 1.35M371.983 109.54c-6.746-.072-9.133 1.468-9.18 5.38-.05 4.106 2.498 5.793 8.674 5.592.5 2.827-1.696 2.518-3.197 2.582-4.762.202-7.994-2.335-8.56-6.52-.642-4.75 1.638-8.386 5.97-9.29 2.26-.47 4.76-1.23 6.293 2.257M170.86 109.397c-7.318.274-9.396 1.735-9.278 5.884.113 4.014 2.354 5.42 8.404 5.272l.442.993c-1.176.524-2.33 1.435-3.533 1.505-4.597.268-7.777-2.216-8.387-6.232-.712-4.682 1.312-8.416 5.327-9.425 2.343-.59 4.91-1.3 7.025 2.004M466.25 110.403l-4.662-1.69.363-1.188h11.623l.39 1.168-4.58 1.768c0 2.96.095 6.398-.066 9.823-.04.864-.898 1.69-1.38 2.533-.563-.88-1.56-1.736-1.61-2.645-.193-3.42-.078-6.857-.078-9.767M339.754 107.57h12.158l.325 1.22-4.652 1.563c0 3.02.092 6.46-.063 9.888-.04.878-.86 1.72-1.32 2.577-.58-.867-1.477-1.67-1.662-2.614-.28-1.435-.04-2.968-.072-4.458-.065-2.873 1.17-6.555-3.917-6.41-.17.004-.365-.786-.796-1.765M250.34 122.847c0-4.86-.066-9.195.07-13.524.022-.68.964-1.332 1.48-1.997.524.673 1.47 1.327 1.502 2.022.155 3.462.07 6.934.07 10.936 1.55 0 2.763-.137 3.925.05.712.115 1.344.726 2.013 1.114-.59.467-1.154 1.292-1.772 1.335-2.316.16-4.65.064-7.287.064M155.623 115.288c0 1.996.09 3.998-.06 5.983-.04.54-.8 1.024-1.23 1.533-.575-.492-1.635-.97-1.65-1.48-.138-4.235-.125-8.478-.02-12.716.01-.442 1.09-1.31 1.362-1.202.638.257 1.49.95 1.54 1.528.183 2.104.073 4.234.073 6.355h-.015zM476.97 106.977c.62.8 1.73 1.574 1.77 2.4.187 3.846.138 7.71.016 11.56-.02.632-.83 1.238-1.275 1.857-.56-.627-1.586-1.24-1.607-1.884-.142-4.444-.075-8.895-.075-13.344l1.173-.59"/></svg>